<svg width="216" height="40" viewBox="0 0 216 40" fill="none" xmlns="http://www.w3.org/2000/svg">
<g clip-path="url(#clip0)">
<path fill-rule="evenodd" clip-rule="evenodd" d="M22.1744 15.831C24.6026 18.1893 25.8162 21.7944 25.8162 25.4537C25.8787 28.2161 25.0973 30.9314 23.5773 33.234C19.207 39.3059 9.38765 40.2276 3.93855 35.1855C1.37555 32.8267 -9.92465e-05 29.2505 -9.92465e-05 25.4537C-0.0333847 23.6658 0.301608 21.8902 0.98384 20.2385C1.66607 18.5868 2.68081 17.0947 3.96432 15.8559C8.71221 11.4103 17.4795 11.2749 22.1734 15.829L22.1744 15.831ZM18.1817 18.0538C19.5846 19.8429 20.2591 22.6349 20.2591 25.4537C20.2591 27.6223 20.0163 29.9536 19.153 31.5784C16.6713 36.2406 10.8981 36.7829 7.79593 32.9064C6.33901 31.0904 5.42224 28.3527 5.42224 25.4522C5.42224 22.5791 6.04267 19.7329 7.49959 17.9438C8.16232 17.1673 8.98613 16.546 9.91319 16.1234C10.8403 15.7008 11.8481 15.4872 12.8661 15.4976C13.884 15.5079 14.8874 15.742 15.8058 16.1833C16.7241 16.6247 17.5353 17.2626 18.1822 18.0523L18.1817 18.0538ZM85.6497 15.831C88.0779 18.1893 89.2915 21.7944 89.2915 25.4537C89.354 28.2161 88.5726 30.9314 87.0526 33.234C82.6824 39.3059 72.863 40.2276 67.4139 35.1855C64.8509 32.8003 63.4752 29.2221 63.4752 25.4542C63.4422 23.6666 63.7773 21.8914 64.4596 20.2401C65.1418 18.5888 66.1564 17.097 67.4397 15.8584C72.1875 11.4128 80.9549 11.2774 85.6487 15.8315L85.6497 15.831ZM81.6571 18.0538C83.06 19.8429 83.7344 22.6349 83.7344 25.4537C83.7344 27.6223 83.4916 29.9536 82.6283 31.5784C80.1466 36.2406 74.3734 36.7829 71.2713 32.9064C69.8143 31.0904 68.8976 28.3527 68.8976 25.4522C68.8976 22.5791 69.518 19.7329 70.9749 17.9438C71.6377 17.1673 72.4615 16.546 73.3885 16.1234C74.3156 15.7008 75.3235 15.4872 76.3414 15.4976C77.3594 15.5079 78.3627 15.742 79.2811 16.1833C80.1995 16.6247 81.0106 17.2626 81.6576 18.0523L81.6571 18.0538ZM212.358 15.831C214.786 18.1893 216 21.7944 216 25.4537C216.062 28.2161 215.281 30.9314 213.761 33.234C209.391 39.3059 199.571 40.2276 194.122 35.1855C191.559 32.7993 190.184 29.2216 190.184 25.4537C190.15 23.6657 190.485 21.8902 191.167 20.2385C191.85 18.5868 192.864 17.0947 194.148 15.8559C198.896 11.4103 207.663 11.2749 212.357 15.829L212.358 15.831ZM208.366 18.0538C209.769 19.8429 210.443 22.6349 210.443 25.4537C210.443 27.6223 210.2 29.9536 209.337 31.5784C206.855 36.2406 201.082 36.7829 197.98 32.9064C196.523 31.0904 195.606 28.3527 195.606 25.4522C195.606 22.5791 196.226 19.7329 197.683 17.9438C198.346 17.1674 199.17 16.5462 200.097 16.1236C201.024 15.7011 202.032 15.4875 203.05 15.4978C204.068 15.5082 205.071 15.7422 205.989 16.1835C206.908 16.6248 207.719 17.2627 208.366 18.0523V18.0538ZM109.713 13.0934H115.108V37.706H109.713V13.0934ZM180.823 13.0934H186.218V37.706H180.823V13.0934ZM178.34 13.0934V16.2105C175.67 15.5328 173.538 15.6413 172.271 16.6984C171.576 17.3139 171.126 18.161 171.003 19.0836C170.922 19.658 170.895 20.2388 170.922 20.8184V37.706H165.527V21.5778C165.527 18.9213 166.363 16.1004 168.55 14.4488C170.843 12.7139 174.242 12.4431 178.342 13.0934H178.34ZM106.799 37.7598L106.125 35.0211C103.454 35.6988 101.323 35.5903 100.055 34.5332C99.3606 33.9176 98.9105 33.0706 98.7878 32.148C98.7071 31.5736 98.68 30.9927 98.707 30.4132V16.2916H106.503V13.1203H98.707V8.89175C98.7878 5.72037 96.7105 4.77179 93.3115 5.12384V29.6807C93.3115 32.3372 94.148 35.1581 96.3343 36.8097C98.6005 38.5446 102.35 38.8428 106.801 37.7583L106.799 37.7598ZM138.578 37.1095C133.641 39.2238 126.519 38.6272 123.12 35.8647C120.422 33.6961 118.938 30.1453 118.938 25.4577C118.905 23.6701 119.241 21.8949 119.923 20.2436C120.605 18.5923 121.62 17.1005 122.903 15.8619C126.707 12.2837 133.21 11.5249 137.902 13.3951V16.7019C134.8 15.0483 130.241 14.994 127.408 17.3796C125.277 19.1687 124.495 22.2316 124.521 25.2969C124.548 28.17 125.25 31.0436 126.842 32.9407C128.406 34.811 130.969 35.4618 133.505 35.299C134.984 35.2561 136.43 34.8455 137.713 34.1039L138.576 37.113L138.578 37.1095ZM142.3 16.9424V13.6899C149.476 11.5214 153.199 8.56659 155.707 5.25977H160.103C158.295 8.24144 154.949 10.7082 150.769 12.6054C153.278 12.6054 155.409 12.9848 157.054 13.8253C159.267 14.9367 160.669 16.8339 161.155 19.6512C161.312 20.7914 161.375 21.9428 161.343 23.0935V37.9769H160.507C157.944 37.9769 156.461 37.1095 156.246 35.0221C155.275 36.1076 154.084 36.9715 152.753 37.5556C151.422 38.1396 149.982 38.4304 148.53 38.4081C145.779 38.4081 143.54 37.7035 142.11 36.375C141.437 35.7319 140.902 34.9582 140.536 34.1009C140.169 33.2437 139.98 32.3206 139.979 31.3877C139.888 29.964 140.215 28.5448 140.92 27.3063C141.625 26.0679 142.676 25.0648 143.944 24.4215C146.314 23.1814 148.961 22.5747 151.632 22.6598L156.056 22.6867V21.1714C156.09 20.0303 155.779 18.9055 155.164 17.9458C154.62 17.1498 153.875 16.5139 153.006 16.1034C150.497 14.9651 146.747 15.4257 142.296 16.9439L142.3 16.9424ZM156.058 25.6434H152.497C150.474 25.6434 148.154 25.9686 146.699 27.1871C145.647 28.0545 145.163 29.3825 145.216 31.1173C145.27 33.0149 146.052 34.3161 147.401 34.9933C148.021 35.304 148.703 35.4707 149.397 35.4812C151.986 35.5081 154.792 33.8276 155.709 31.3613C155.947 30.748 156.066 30.0948 156.06 29.4367V25.6439L156.058 25.6434ZM35.5008 3.30785H33.6672C33.6405 3.30785 33.6405 3.30785 33.6132 3.28096C33.5865 3.28096 33.5592 3.28096 33.5592 3.25407H33.5325C33.5057 3.25407 33.5057 3.25407 33.4784 3.22718H33.4487L33.3947 3.2003H33.3679L33.3139 3.17341H33.2872L33.2331 3.14652H33.2064L33.1524 3.11963L33.1256 3.09274H33.1018L33.0751 3.06585L33.0483 3.03896H33.0215L32.9675 3.01207L32.9408 2.98519L32.914 2.9583L32.8872 2.93141L32.8605 2.90452L32.8337 2.87763L32.7797 2.85074L32.753 2.82385L32.7262 2.79696L32.6994 2.77008L32.6727 2.74319L32.6187 2.68891L32.5914 2.66202L32.5646 2.63513L32.5379 2.60825L32.4839 2.55397L32.4031 2.47281L32.3491 2.41853V2.38616C32.3158 2.35523 32.2884 2.31844 32.2683 2.27761C32.2265 2.21788 32.1903 2.15437 32.1603 2.0879C31.8323 1.44538 31.7174 0.714344 31.8322 0.0015302H45.4014C48.7464 -0.0253586 52.1187 0.787777 54.4383 2.5226C55.5628 3.35221 56.4746 4.43877 57.0984 5.6925C57.7223 6.94623 58.0403 8.33113 58.0261 9.73277C58.0652 11.8889 57.2725 13.9766 55.814 15.5587C54.7487 16.6225 53.4953 17.4775 52.1182 18.0797C53.714 18.5339 55.2135 19.278 56.5425 20.2751C57.7965 21.2783 58.804 22.5579 59.487 24.015C60.1699 25.4721 60.5101 27.0675 60.4811 28.6779C60.5217 31.1588 59.6581 33.5689 58.0529 35.4544C53.3323 40.74 42.7032 41.5531 36.8224 37.1623C34.8656 35.7128 33.4729 33.6232 32.8838 31.2532C32.4135 29.3093 32.1691 27.3172 32.1553 25.3168V6.23524C33.531 6.12669 34.9606 6.07241 36.0667 6.72322C37.5236 7.61951 37.7665 9.40662 37.7665 10.9517L37.7397 25.5349C37.7665 28.5723 38.4409 31.0376 39.547 32.9079C40.3787 34.3736 41.6821 35.5112 43.2428 36.1335C45.8326 37.1638 49.6354 36.9198 51.9021 35.2372C54.4111 33.3949 54.6539 30.3037 54.6276 28.4065C54.6009 26.5362 54.1693 23.6631 51.633 21.9009C50.0251 20.8124 48.1201 20.2535 46.1819 20.3015H41.2452V16.6442H46.6403C47.1001 16.5981 47.5528 16.4979 47.9892 16.3454C48.7744 16.1722 49.5058 15.8093 50.1201 15.2883C51.9006 13.8517 52.467 10.897 52.3322 9.10785C52.1167 6.07042 50.3629 3.22569 43.8345 3.22569H35.5008V3.30785Z" fill="#6F967E"/>
</g>
<defs>
<clipPath id="clip0">
<rect width="216" height="40" fill="white"/>
</clipPath>
</defs>
</svg>
